<mxfile host="app.diagrams.net" modified="2023-08-29T08:29:43.174Z" agent="Mozilla/5.0 (Windows NT 10.0; Win64; x64) AppleWebKit/537.36 (KHTML, like Gecko) Chrome/116.0.0.0 Safari/537.36" version="21.6.9" etag="rD8gXdZoAvBg-euyUQ9G" type="github">
  <diagram name="Side-1" id="Eu3ANUm6t381A6FxSGgs">
    <mxGraphModel>
      <root>
        <mxCell id="0" />
        <mxCell id="1" parent="0" />
      </root>
    </mxGraphModel>
  </diagram>
</mxfile>
